<mxfile host="app.diagrams.net" agent="Mozilla/5.0 (Windows NT 10.0; Win64; x64) AppleWebKit/537.36 (KHTML, like Gecko) Chrome/127.0.0.0 Safari/537.36" version="24.7.7">
  <diagram name="Page-1" id="bVBDr7YD2kAVq5JZf0o2">
    <mxGraphModel dx="1395" dy="622" grid="0" gridSize="10" guides="1" tooltips="1" connect="1" arrows="1" fold="1" page="0" pageScale="1" pageWidth="850" pageHeight="1100" math="0" shadow="0">
      <root>
        <mxCell id="0" />
        <mxCell id="1" parent="0" />
        <mxCell id="69hd-acSu9PRx414M_0n-7" value="&lt;b&gt;FemaleGreeting&lt;/b&gt;" style="swimlane;fontStyle=0;childLayout=stackLayout;horizontal=1;startSize=26;fillColor=#ffe6cc;horizontalStack=0;resizeParent=1;resizeParentMax=0;resizeLast=0;collapsible=1;marginBottom=0;whiteSpace=wrap;html=1;strokeColor=#d79b00;" vertex="1" parent="1">
          <mxGeometry x="500" y="300" width="130" height="52" as="geometry" />
        </mxCell>
        <mxCell id="69hd-acSu9PRx414M_0n-8" value="+ greet(String): void" style="text;strokeColor=none;fillColor=none;align=left;verticalAlign=top;spacingLeft=4;spacingRight=4;overflow=hidden;rotatable=0;points=[[0,0.5],[1,0.5]];portConstraint=eastwest;whiteSpace=wrap;html=1;" vertex="1" parent="69hd-acSu9PRx414M_0n-7">
          <mxGeometry y="26" width="130" height="26" as="geometry" />
        </mxCell>
        <mxCell id="69hd-acSu9PRx414M_0n-9" value="" style="endArrow=block;endSize=16;endFill=0;html=1;rounded=0;exitX=0.5;exitY=0;exitDx=0;exitDy=0;" edge="1" parent="1" source="69hd-acSu9PRx414M_0n-17">
          <mxGeometry width="160" relative="1" as="geometry">
            <mxPoint x="335" y="300" as="sourcePoint" />
            <mxPoint x="435" y="214" as="targetPoint" />
            <Array as="points">
              <mxPoint x="345" y="260" />
              <mxPoint x="435" y="260" />
            </Array>
          </mxGeometry>
        </mxCell>
        <mxCell id="69hd-acSu9PRx414M_0n-10" value="" style="endArrow=block;endSize=16;endFill=0;html=1;rounded=0;exitX=0.5;exitY=0;exitDx=0;exitDy=0;entryX=0.544;entryY=1.008;entryDx=0;entryDy=0;entryPerimeter=0;" edge="1" parent="1" source="69hd-acSu9PRx414M_0n-7" target="69hd-acSu9PRx414M_0n-20">
          <mxGeometry width="160" relative="1" as="geometry">
            <mxPoint x="430" y="320" as="sourcePoint" />
            <mxPoint x="462.41499999999996" y="222" as="targetPoint" />
            <Array as="points">
              <mxPoint x="565" y="260" />
              <mxPoint x="462" y="260" />
            </Array>
          </mxGeometry>
        </mxCell>
        <mxCell id="69hd-acSu9PRx414M_0n-13" value="&lt;i style=&quot;&quot;&gt;Person&lt;/i&gt;" style="swimlane;fontStyle=1;align=center;verticalAlign=top;childLayout=stackLayout;horizontal=1;startSize=26;horizontalStack=0;resizeParent=1;resizeParentMax=0;resizeLast=0;collapsible=1;marginBottom=0;whiteSpace=wrap;html=1;fillColor=#ffe6cc;strokeColor=#d79b00;" vertex="1" parent="1">
          <mxGeometry x="400" y="410" width="120" height="120" as="geometry" />
        </mxCell>
        <mxCell id="69hd-acSu9PRx414M_0n-14" value="+ name: String" style="text;strokeColor=none;fillColor=none;align=left;verticalAlign=top;spacingLeft=4;spacingRight=4;overflow=hidden;rotatable=0;points=[[0,0.5],[1,0.5]];portConstraint=eastwest;whiteSpace=wrap;html=1;" vertex="1" parent="69hd-acSu9PRx414M_0n-13">
          <mxGeometry y="26" width="120" height="26" as="geometry" />
        </mxCell>
        <mxCell id="69hd-acSu9PRx414M_0n-15" value="" style="line;strokeWidth=1;fillColor=none;align=left;verticalAlign=middle;spacingTop=-1;spacingLeft=3;spacingRight=3;rotatable=0;labelPosition=right;points=[];portConstraint=eastwest;strokeColor=inherit;" vertex="1" parent="69hd-acSu9PRx414M_0n-13">
          <mxGeometry y="52" width="120" height="8" as="geometry" />
        </mxCell>
        <mxCell id="69hd-acSu9PRx414M_0n-16" value="+ getName(): String&lt;div&gt;&lt;br&gt;&lt;/div&gt;&lt;div&gt;&lt;i&gt;+ greet(): void&lt;/i&gt;&lt;/div&gt;" style="text;strokeColor=none;fillColor=none;align=left;verticalAlign=top;spacingLeft=4;spacingRight=4;overflow=hidden;rotatable=0;points=[[0,0.5],[1,0.5]];portConstraint=eastwest;whiteSpace=wrap;html=1;" vertex="1" parent="69hd-acSu9PRx414M_0n-13">
          <mxGeometry y="60" width="120" height="60" as="geometry" />
        </mxCell>
        <mxCell id="69hd-acSu9PRx414M_0n-17" value="&lt;b&gt;MaleGreeting&lt;/b&gt;" style="swimlane;fontStyle=0;childLayout=stackLayout;horizontal=1;startSize=26;fillColor=#ffe6cc;horizontalStack=0;resizeParent=1;resizeParentMax=0;resizeLast=0;collapsible=1;marginBottom=0;whiteSpace=wrap;html=1;strokeColor=#d79b00;" vertex="1" parent="1">
          <mxGeometry x="280" y="300" width="130" height="52" as="geometry" />
        </mxCell>
        <mxCell id="69hd-acSu9PRx414M_0n-18" value="+ greet(String): void" style="text;strokeColor=none;fillColor=none;align=left;verticalAlign=top;spacingLeft=4;spacingRight=4;overflow=hidden;rotatable=0;points=[[0,0.5],[1,0.5]];portConstraint=eastwest;whiteSpace=wrap;html=1;" vertex="1" parent="69hd-acSu9PRx414M_0n-17">
          <mxGeometry y="26" width="130" height="26" as="geometry" />
        </mxCell>
        <mxCell id="69hd-acSu9PRx414M_0n-19" value="&lt;b&gt;&lt;i&gt;Greeting&lt;/i&gt;&lt;/b&gt;" style="swimlane;fontStyle=0;childLayout=stackLayout;horizontal=1;startSize=26;fillColor=#ffe6cc;horizontalStack=0;resizeParent=1;resizeParentMax=0;resizeLast=0;collapsible=1;marginBottom=0;whiteSpace=wrap;html=1;strokeColor=#d79b00;" vertex="1" parent="1">
          <mxGeometry x="390" y="160" width="130" height="52" as="geometry" />
        </mxCell>
        <mxCell id="69hd-acSu9PRx414M_0n-20" value="+ greet(String): void" style="text;strokeColor=none;fillColor=none;align=left;verticalAlign=top;spacingLeft=4;spacingRight=4;overflow=hidden;rotatable=0;points=[[0,0.5],[1,0.5]];portConstraint=eastwest;whiteSpace=wrap;html=1;" vertex="1" parent="69hd-acSu9PRx414M_0n-19">
          <mxGeometry y="26" width="130" height="26" as="geometry" />
        </mxCell>
        <mxCell id="69hd-acSu9PRx414M_0n-37" value="&lt;b&gt;Male&lt;/b&gt;" style="swimlane;fontStyle=0;childLayout=stackLayout;horizontal=1;startSize=26;fillColor=#ffe6cc;horizontalStack=0;resizeParent=1;resizeParentMax=0;resizeLast=0;collapsible=1;marginBottom=0;whiteSpace=wrap;html=1;strokeColor=#d79b00;" vertex="1" parent="1">
          <mxGeometry x="310" y="588" width="110" height="52" as="geometry" />
        </mxCell>
        <mxCell id="69hd-acSu9PRx414M_0n-40" value="+ greet(): void" style="text;strokeColor=none;fillColor=none;align=left;verticalAlign=top;spacingLeft=4;spacingRight=4;overflow=hidden;rotatable=0;points=[[0,0.5],[1,0.5]];portConstraint=eastwest;whiteSpace=wrap;html=1;" vertex="1" parent="69hd-acSu9PRx414M_0n-37">
          <mxGeometry y="26" width="110" height="26" as="geometry" />
        </mxCell>
        <mxCell id="69hd-acSu9PRx414M_0n-41" value="&lt;b&gt;Female&lt;/b&gt;" style="swimlane;fontStyle=0;childLayout=stackLayout;horizontal=1;startSize=26;fillColor=#ffe6cc;horizontalStack=0;resizeParent=1;resizeParentMax=0;resizeLast=0;collapsible=1;marginBottom=0;whiteSpace=wrap;html=1;strokeColor=#d79b00;" vertex="1" parent="1">
          <mxGeometry x="490" y="588" width="110" height="52" as="geometry" />
        </mxCell>
        <mxCell id="69hd-acSu9PRx414M_0n-42" value="+ greet(): void" style="text;strokeColor=none;fillColor=none;align=left;verticalAlign=top;spacingLeft=4;spacingRight=4;overflow=hidden;rotatable=0;points=[[0,0.5],[1,0.5]];portConstraint=eastwest;whiteSpace=wrap;html=1;" vertex="1" parent="69hd-acSu9PRx414M_0n-41">
          <mxGeometry y="26" width="110" height="26" as="geometry" />
        </mxCell>
        <mxCell id="69hd-acSu9PRx414M_0n-43" value="MaleGreeting.greet()" style="shape=note;whiteSpace=wrap;html=1;backgroundOutline=1;darkOpacity=0.05;size=12;fillColor=#fff2cc;strokeColor=#d6b656;" vertex="1" parent="1">
          <mxGeometry x="200" y="680" width="140" height="30" as="geometry" />
        </mxCell>
        <mxCell id="69hd-acSu9PRx414M_0n-44" value="" style="endArrow=none;dashed=1;html=1;dashPattern=1 3;strokeWidth=2;rounded=0;exitX=0;exitY=0;exitDx=64;exitDy=0;exitPerimeter=0;entryX=0;entryY=0.5;entryDx=0;entryDy=0;" edge="1" parent="1" source="69hd-acSu9PRx414M_0n-43" target="69hd-acSu9PRx414M_0n-40">
          <mxGeometry width="50" height="50" relative="1" as="geometry">
            <mxPoint x="370" y="770" as="sourcePoint" />
            <mxPoint x="420" y="720" as="targetPoint" />
          </mxGeometry>
        </mxCell>
        <mxCell id="69hd-acSu9PRx414M_0n-46" value="FemaleGreeting.greet()" style="shape=note;whiteSpace=wrap;html=1;backgroundOutline=1;darkOpacity=0.05;size=12;fillColor=#fff2cc;strokeColor=#d6b656;" vertex="1" parent="1">
          <mxGeometry x="370" y="680" width="140" height="30" as="geometry" />
        </mxCell>
        <mxCell id="69hd-acSu9PRx414M_0n-47" value="" style="endArrow=block;endSize=16;endFill=0;html=1;rounded=0;entryX=0.639;entryY=1.02;entryDx=0;entryDy=0;entryPerimeter=0;exitX=0.5;exitY=0;exitDx=0;exitDy=0;" edge="1" parent="1" source="69hd-acSu9PRx414M_0n-41" target="69hd-acSu9PRx414M_0n-16">
          <mxGeometry width="160" relative="1" as="geometry">
            <mxPoint x="580" y="560" as="sourcePoint" />
            <mxPoint x="440" y="500" as="targetPoint" />
            <Array as="points">
              <mxPoint x="545" y="560" />
              <mxPoint x="477" y="560" />
            </Array>
          </mxGeometry>
        </mxCell>
        <mxCell id="69hd-acSu9PRx414M_0n-48" value="" style="endArrow=block;endSize=16;endFill=0;html=1;rounded=0;entryX=0.362;entryY=1.012;entryDx=0;entryDy=0;entryPerimeter=0;exitX=0.5;exitY=0;exitDx=0;exitDy=0;" edge="1" parent="1" source="69hd-acSu9PRx414M_0n-37" target="69hd-acSu9PRx414M_0n-16">
          <mxGeometry width="160" relative="1" as="geometry">
            <mxPoint x="555" y="598" as="sourcePoint" />
            <mxPoint x="487" y="541" as="targetPoint" />
            <Array as="points">
              <mxPoint x="365" y="560" />
              <mxPoint x="443" y="560" />
            </Array>
          </mxGeometry>
        </mxCell>
        <mxCell id="69hd-acSu9PRx414M_0n-49" value="" style="endArrow=none;dashed=1;html=1;dashPattern=1 3;strokeWidth=2;rounded=0;exitX=0.5;exitY=0;exitDx=0;exitDy=0;exitPerimeter=0;entryX=0;entryY=0.5;entryDx=0;entryDy=0;" edge="1" parent="1" source="69hd-acSu9PRx414M_0n-46" target="69hd-acSu9PRx414M_0n-42">
          <mxGeometry width="50" height="50" relative="1" as="geometry">
            <mxPoint x="283" y="690" as="sourcePoint" />
            <mxPoint x="320" y="637" as="targetPoint" />
          </mxGeometry>
        </mxCell>
        <mxCell id="69hd-acSu9PRx414M_0n-50" value="&amp;lt;&amp;lt;use&amp;gt;&amp;gt;" style="endArrow=open;endSize=12;dashed=1;html=1;rounded=0;exitX=0.25;exitY=0;exitDx=0;exitDy=0;entryX=0.427;entryY=0.985;entryDx=0;entryDy=0;entryPerimeter=0;dashPattern=1 4;" edge="1" parent="1" source="69hd-acSu9PRx414M_0n-37" target="69hd-acSu9PRx414M_0n-18">
          <mxGeometry width="160" relative="1" as="geometry">
            <mxPoint x="390" y="440" as="sourcePoint" />
            <mxPoint x="330" y="360" as="targetPoint" />
          </mxGeometry>
        </mxCell>
        <mxCell id="69hd-acSu9PRx414M_0n-51" value="&amp;lt;&amp;lt;use&amp;gt;&amp;gt;" style="endArrow=open;endSize=12;dashed=1;html=1;rounded=0;exitX=0.75;exitY=0;exitDx=0;exitDy=0;dashPattern=1 4;entryX=0.562;entryY=1.024;entryDx=0;entryDy=0;entryPerimeter=0;" edge="1" parent="1" source="69hd-acSu9PRx414M_0n-41" target="69hd-acSu9PRx414M_0n-8">
          <mxGeometry width="160" relative="1" as="geometry">
            <mxPoint x="582" y="588" as="sourcePoint" />
            <mxPoint x="571" y="353" as="targetPoint" />
          </mxGeometry>
        </mxCell>
        <mxCell id="69hd-acSu9PRx414M_0n-52" value="&lt;b&gt;Greetings&lt;/b&gt;" style="swimlane;fontStyle=0;childLayout=stackLayout;horizontal=1;startSize=26;fillColor=#ffe6cc;horizontalStack=0;resizeParent=1;resizeParentMax=0;resizeLast=0;collapsible=1;marginBottom=0;whiteSpace=wrap;html=1;strokeColor=#d79b00;" vertex="1" parent="1">
          <mxGeometry x="100" y="410" width="130" height="52" as="geometry" />
        </mxCell>
        <mxCell id="69hd-acSu9PRx414M_0n-53" value="+ main(String[]): void" style="text;strokeColor=none;fillColor=none;align=left;verticalAlign=top;spacingLeft=4;spacingRight=4;overflow=hidden;rotatable=0;points=[[0,0.5],[1,0.5]];portConstraint=eastwest;whiteSpace=wrap;html=1;" vertex="1" parent="69hd-acSu9PRx414M_0n-52">
          <mxGeometry y="26" width="130" height="26" as="geometry" />
        </mxCell>
        <mxCell id="69hd-acSu9PRx414M_0n-56" value="" style="html=1;verticalAlign=bottom;endArrow=block;curved=0;rounded=0;exitX=1;exitY=0.25;exitDx=0;exitDy=0;entryX=-0.009;entryY=0.111;entryDx=0;entryDy=0;entryPerimeter=0;" edge="1" parent="1" source="69hd-acSu9PRx414M_0n-52" target="69hd-acSu9PRx414M_0n-13">
          <mxGeometry width="80" relative="1" as="geometry">
            <mxPoint x="270" y="420" as="sourcePoint" />
            <mxPoint x="350" y="420" as="targetPoint" />
          </mxGeometry>
        </mxCell>
      </root>
    </mxGraphModel>
  </diagram>
</mxfile>
